<svg xmlns="http://www.w3.org/2000/svg" viewBox="0 0 252.36 164.4"><defs><style>.cls-1{fill:#e2001a;}</style></defs><title>Recurso 1logo</title><g id="Capa_2" data-name="Capa 2"><g id="Capa_1-2" data-name="Capa 1"><path class="cls-1" d="M118.27,156c-13.23-8.29-23-36.89-23-70.87,0-1.25,0-2.48,0-3.71h0l0,0h0c-36.8-5.78-63.39-21.63-64.08-40.37h0l-.11.22h0C22.15,52.51,17,65.45,17,79.24,17,119.81,61.55,153,118,156h0l.24,0ZM0,82.2C0,36.81,56.49,0,126.18,0S252.36,36.81,252.36,82.2s-56.49,82.2-126.18,82.2S0,127.59,0,82.2ZM126.18,11.86c13.45,0,24.9,20.41,29.13,48.88h0l0,0h0c26.17-4.07,44.5-13.47,44.5-24.41,0-14.68-33-26.56-73.65-26.56S52.53,21.62,52.53,36.29c0,10.94,18.32,20.33,44.5,24.41h0l0,0h0c4.24-28.47,15.69-48.88,29.14-48.88ZM134.32,156c56.49-2.94,101-36.18,101-76.75,0-13.79-5.15-26.72-14.15-37.92h0l-.11-.22h0c-.68,18.74-27.26,34.58-64.07,40.37h0l0,0h0c0,1.23,0,2.46,0,3.71,0,34-9.76,62.58-23,70.87h0l.23,0Zm-8.14-93.13c6,0,11.89-.26,17.49-.75h0C140.87,43.86,134.1,31,126.18,31s-14.69,12.88-17.49,31.14h0c5.61.49,11.47.75,17.49.75Zm0,67.59c10.13,0,18.39-21.08,18.83-47.51h0l.05,0h0c-6.1.57-12.42.86-18.88.86S113.4,83.52,107.3,83h0l.06,0h0c.43,26.44,8.69,47.51,18.83,47.51Z"/></g></g></svg>