<?xml version="1.0" encoding="utf-8"?>
<!-- Generator: Adobe Illustrator 21.0.0, SVG Export Plug-In . SVG Version: 6.00 Build 0)  -->
<svg version="1.1" id="Capa_1" xmlns="http://www.w3.org/2000/svg" xmlns:xlink="http://www.w3.org/1999/xlink" x="0px" y="0px"
	 viewBox="0 0 1001 165" style="enable-background:new 0 0 1001 165;" xml:space="preserve">
<style type="text/css">
	.st0{fill:#FFFDFD;}
	.st1{fill:#FFFFFF;}
</style>
<g>
	<path class="st0" d="M119,156.5c-13.2-8.3-23-36.9-23-70.9c0-1.2,0-2.5,0-3.7l0,0l0,0l0,0C59.3,76.1,32.7,60.3,32,41.5l0,0
		l-0.1,0.2l0,0c-9,11.2-14.1,24.1-14.1,37.9c0,40.6,44.5,73.8,101,76.8l0,0L119,156.5L119,156.5L119,156.5z M0.7,82.6
		c0-45.4,56.5-82.2,126.2-82.2c69.7,0,126.2,36.8,126.2,82.2s-56.5,82.2-126.2,82.2C57.2,164.8,0.7,128,0.7,82.6L0.7,82.6L0.7,82.6
		L0.7,82.6z M126.9,12.3c13.5,0,24.9,20.4,29.1,48.9l0,0l0,0l0,0c26.2-4.1,44.5-13.5,44.5-24.4c0-14.7-33-26.6-73.6-26.6
		c-40.7,0-73.6,11.9-73.6,26.6c0,10.9,18.3,20.3,44.5,24.4l0,0l0,0l0,0C102,32.7,113.4,12.3,126.9,12.3L126.9,12.3L126.9,12.3
		L126.9,12.3z M135,156.4c56.5-2.9,101-36.2,101-76.8c0-13.8-5.1-26.7-14.1-37.9l0,0l-0.1-0.2l0,0c-0.7,18.7-27.3,34.6-64.1,40.4
		l0,0l0,0l0,0c0,1.2,0,2.5,0,3.7c0,34-9.8,62.6-23,70.9l0,0L135,156.4L135,156.4L135,156.4z M126.9,63.3c6,0,11.9-0.3,17.5-0.8l0,0
		l0,0l0,0c-2.8-18.3-9.6-31.1-17.5-31.1c-7.9,0-14.7,12.9-17.5,31.1l0,0l0,0l0,0C115,63,120.9,63.3,126.9,63.3L126.9,63.3
		L126.9,63.3L126.9,63.3z M126.9,130.9c10.1,0,18.4-21.1,18.8-47.5l0,0l0.1,0l0,0c-6.1,0.6-12.4,0.9-18.9,0.9
		c-6.5,0-12.8-0.3-18.9-0.9l0,0l0.1,0l0,0C108.5,109.8,116.8,130.9,126.9,130.9L126.9,130.9L126.9,130.9L126.9,130.9z"/>
	<path class="st0" d="M644.6,82.6c0-34.7,28.1-62.8,62.8-62.8c34.7,0,62.8,28.1,62.8,62.8c0,34.7-28.1,62.8-62.8,62.8
		C672.7,145.5,644.6,117.3,644.6,82.6L644.6,82.6L644.6,82.6L644.6,82.6z M707.4,122.4c19.4,0,35.1-17.8,35.1-39.8
		c0-22-15.7-39.8-35.1-39.8c-19.4,0-35.1,17.8-35.1,39.8S688,122.4,707.4,122.4L707.4,122.4L707.4,122.4L707.4,122.4z"/>
	<polygon class="st0" points="841.5,46 841.5,142.6 815,142.6 815,46 815.1,46 778.1,46 778.1,24.1 878.4,24.1 878.4,46 841.6,46 
		841.5,46 	"/>
	<path class="st0" d="M910.5,115.9L910.5,115.9l-10.2,26.7h-30.9l48.9-118.5h16.5h16.5l48.9,118.5h-30.9L959,116l0,0h-24.2
		L910.5,115.9L910.5,115.9L910.5,115.9z M934.7,96h16.7l0,0l-16.5-43.4h-0.2L918,96l0,0H934.7L934.7,96L934.7,96z"/>
	<polygon class="st0" points="353.6,46 353.6,142.6 327.1,142.6 327.1,46 327.2,46 290.2,46 290.2,24.1 390.5,24.1 390.5,46 
		353.6,46 353.6,46 	"/>
	<path class="st1" d="M397.3,82.6c0-34.7,28.1-62.8,62.8-62.8c34.7,0,62.8,28.1,62.8,62.8c0,34.7-28.1,62.8-62.8,62.8
		C425.4,145.5,397.3,117.3,397.3,82.6L397.3,82.6L397.3,82.6L397.3,82.6z M460.1,122.4c19.4,0,35.1-17.8,35.1-39.8
		c0-22-15.7-39.8-35.1-39.8c-19.4,0-35.1,17.8-35.1,39.8S440.7,122.4,460.1,122.4L460.1,122.4L460.1,122.4L460.1,122.4z"/>
	<polygon class="st0" points="583.7,142.6 597.2,142.6 597.2,98.2 597.2,97.6 643.3,24.1 612.4,24.1 583.7,73.9 555,24.1 
		524.1,24.1 570.3,97.6 570.3,98.2 570.3,142.6 583.7,142.6 	"/>
</g>
</svg>
